<?xml version="1.0" encoding="UTF-8"?><svg xmlns="http://www.w3.org/2000/svg" viewBox="0 0 76.78 86.63"><defs><style>.d{fill:#1d1d1b;}</style></defs><g id="a"/><g id="b"><g id="c"><g><path class="d" d="M38.39,9.86C17.19,9.86,0,27.05,0,48.25s17.19,38.39,38.39,38.39,38.39-17.19,38.39-38.39S59.59,9.86,38.39,9.86Zm0,68.91c-16.86,0-30.52-13.67-30.52-30.52s13.67-30.52,30.52-30.52,30.52,13.67,30.52,30.52-13.67,30.52-30.52,30.52Z"/><rect class="d" x="34.76" y="3.93" width="7.87" height="7.87"/><rect class="d" x="30.52" width="7.87" height="3.93"/><rect class="d" x="38.39" width="7.87" height="3.93"/><polygon class="d" points="68.61 14.82 64.56 10.77 63.71 11.62 63.23 11.13 58.2 16.15 63.23 21.17 68.25 16.15 67.76 15.67 68.61 14.82"/><polygon class="d" points="14.16 11.13 13.67 11.62 12.82 10.77 8.78 14.82 9.63 15.67 9.14 16.15 14.16 21.17 19.18 16.15 14.16 11.13"/><circle class="d" cx="38.69" cy="46.75" r="4.94"/><path class="d" d="M54.68,59.45h0c.12-1.33-.21-2.38-.96-2.97l-13.77-10.95-2.15,2.71,13.77,10.95c.74,.59,1.84,.68,3.11,.26h0Z"/></g></g></g></svg>